<mxfile host="app.diagrams.net" agent="Mozilla/5.0 (Macintosh; Intel Mac OS X 10_15_7) AppleWebKit/537.36 (KHTML, like Gecko) Chrome/128.0.0.0 Safari/537.36 Edg/128.0.0.0" version="24.7.6">
  <diagram name="第 1 页" id="RUXlXWL2lyLZQwXg1q7h">
    <mxGraphModel dx="1044" dy="577" grid="1" gridSize="10" guides="1" tooltips="1" connect="1" arrows="1" fold="1" page="1" pageScale="1" pageWidth="827" pageHeight="1169" math="0" shadow="0">
      <root>
        <mxCell id="0" />
        <mxCell id="1" parent="0" />
        <mxCell id="4ae6H3SjUM6ECucMdmOG-4" style="edgeStyle=orthogonalEdgeStyle;rounded=0;orthogonalLoop=1;jettySize=auto;html=1;exitX=1;exitY=0.5;exitDx=0;exitDy=0;entryX=0;entryY=0.5;entryDx=0;entryDy=0;strokeWidth=4;strokeColor=#6B6B6B;" edge="1" parent="1" source="4ae6H3SjUM6ECucMdmOG-2" target="4ae6H3SjUM6ECucMdmOG-3">
          <mxGeometry relative="1" as="geometry" />
        </mxCell>
        <mxCell id="4ae6H3SjUM6ECucMdmOG-2" value="" style="editableCssRules=.*;html=1;shape=image;verticalLabelPosition=bottom;labelBackgroundColor=#ffffff;verticalAlign=top;aspect=fixed;imageAspect=0;image=data:image/svg+xml,PHN2ZyB4bWxucz0iaHR0cDovL3d3dy53My5vcmcvMjAwMC9zdmciIHhtbG5zOnY9Imh0dHBzOi8vdmVjdGEuaW8vbmFubyIgd2lkdGg9IjE2Ljk3OTk5OTU0MjIzNjMyOCIgaGVpZ2h0PSIyMCIgdmlld0JveD0iMCAwIDE2Ljk3OTk5OTU0MjIzNjMyOCAyMCI+JiN4YTsJPHN0eWxlIHR5cGU9InRleHQvY3NzIj4mI3hhOwkuc3Qwe2ZpbGw6IzY2OWRmNjt9JiN4YTsJLnN0MXtmaWxsOiM0Mjg1ZjQ7fSYjeGE7CS5zdDJ7ZmlsbDojYWVjYmZhO30mI3hhOwk8L3N0eWxlPiYjeGE7CTxnIGNsYXNzPSJzdDAiPiYjeGE7CQk8cGF0aCBkPSJNOC40OSAxMC4yOUwuMjQgNS4zNSA4LjQ5LjU4bDguMjQgNC42N3pNMS43NiA1LjM2bDYuNzIgNCA2LjcyLTQuMTEtNi43MS0zLjc4eiIvPiYjeGE7CQk8cGF0aCBkPSJNOC40OSAxOS40NEwuMjEgMTMuODkgOC40OSA5LjNsOC4xNSA0LjY0em0tNi44LTUuNWw2LjggNC41NiA2LjctNC41LTYuNy0zLjgyeiIvPiYjeGE7CTwvZz4mI3hhOwk8ZyBjbGFzcz0ic3QxIj4mI3hhOwkJPHBhdGggZD0iTS42MTMgNS41MDJsLjY3NS0uMzcxIDcuNDc3IDEzLjYtLjY3NS4zNzF6Ii8+JiN4YTsJCTxwYXRoIGQ9Ik04LjE5NCAxOC44MjZsNy4zMDEtMTMuNTU5LjY3OC4zNjUtNy4zMDEgMTMuNTU5ek0uNzE2IDEzLjY4N0w4LjA5Ni45MDRsLjY2Ny4zODUtNy4zOCAxMi43ODN6Ii8+JiN4YTsJCTxwYXRoIGQ9Ik04LjE5NCAxLjIxNGwuNjY5LS4zODEgNy40MDUgMTIuOTg3LS42NjkuMzgxeiIvPiYjeGE7CQk8cGF0aCBkPSJNOC4xMy45NmguNzdWMTguOWgtLjc3ek0uNTUgNS40M2guNzd2OC42NkguNTV6bTE0Ljk3LS4wOWguNzdWMTRoLS43N3oiLz4mI3hhOwk8L2c+JiN4YTsJPGcgY2xhc3M9InN0MiI+JiN4YTsJCTxjaXJjbGUgY3g9IjguNTIiIGN5PSIxLjA3IiByPSIxLjA3Ii8+JiN4YTsJCTxjaXJjbGUgY3g9IjE1LjkxIiBjeT0iNS4zNCIgcj0iMS4wNyIvPiYjeGE7CQk8Y2lyY2xlIGN4PSIxLjA3IiBjeT0iNS4zNCIgcj0iMS4wNyIvPiYjeGE7CQk8Y2lyY2xlIGN4PSI4LjUyIiBjeT0iOS45MyIgcj0iMS42OCIvPiYjeGE7CQk8Y2lyY2xlIGN4PSIxNS45MSIgY3k9IjEzLjk0IiByPSIxLjA3Ii8+JiN4YTsJCTxjaXJjbGUgY3g9IjEuMDciIGN5PSIxMy45NCIgcj0iMS4wNyIvPiYjeGE7CQk8Y2lyY2xlIGN4PSI4LjUyIiBjeT0iMTguOTMiIHI9IjEuMDciLz4mI3hhOwkJPHBhdGggZD0iTTguNDkgMTAuMjlMLjI0IDUuMzUgOC40OS41OGw4LjI0IDQuNjd6TTEuNzYgNS4zNmw2LjcyIDQgNi43Mi00LjExLTYuNzEtMy43OHoiLz4mI3hhOwkJPHBhdGggZD0iTTguNDkgMTkuNDRMLjIxIDEzLjg5IDguNDkgOS4zbDguMTUgNC42NHptLTYuOC01LjVsNi44IDQuNTYgNi43LTQuNS02LjctMy44MnoiLz4mI3hhOwkJPHBhdGggZD0iTS42MTMgNS41MDJsLjY3NS0uMzcxIDcuNDc3IDEzLjYtLjY3NS4zNzF6Ii8+JiN4YTsJCTxwYXRoIGQ9Ik04LjE5NCAxOC44MjZsNy4zMDEtMTMuNTU5LjY3OC4zNjUtNy4zMDEgMTMuNTU5ek0uNzE2IDEzLjY4N0w4LjA5Ni45MDRsLjY2Ny4zODUtNy4zOCAxMi43ODN6Ii8+JiN4YTsJCTxwYXRoIGQ9Ik04LjE5NCAxLjIxNGwuNjY5LS4zODEgNy40MDUgMTIuOTg3LS42NjkuMzgxeiIvPiYjeGE7CQk8cGF0aCBkPSJNOC4xMy45NmguNzdWMTguOWgtLjc3ek0uNTUgNS40M2guNzd2OC42NkguNTV6bTE0Ljk3LS4wOWguNzdWMTRoLS43N3oiLz4mI3hhOwk8L2c+JiN4YTsJPGcgY2xhc3M9InN0MCI+JiN4YTsJCTxjaXJjbGUgY3g9IjguNTIiIGN5PSIxLjA3IiByPSIxLjA3Ii8+JiN4YTsJCTxjaXJjbGUgY3g9IjE1LjkxIiBjeT0iNS4zNCIgcj0iMS4wNyIvPiYjeGE7CQk8Y2lyY2xlIGN4PSIxLjA3IiBjeT0iNS4zNCIgcj0iMS4wNyIvPiYjeGE7CQk8Y2lyY2xlIGN4PSI4LjUyIiBjeT0iOS45MyIgcj0iMS42OCIvPiYjeGE7CQk8Y2lyY2xlIGN4PSIxNS45MSIgY3k9IjEzLjk0IiByPSIxLjA3Ii8+JiN4YTsJCTxjaXJjbGUgY3g9IjEuMDciIGN5PSIxMy45NCIgcj0iMS4wNyIvPiYjeGE7CQk8Y2lyY2xlIGN4PSI4LjUyIiBjeT0iMTguOTMiIHI9IjEuMDciLz4mI3hhOwk8L2c+JiN4YTs8L3N2Zz4=;labelPosition=center;align=center;" vertex="1" parent="1">
          <mxGeometry x="240" y="250" width="110.5" height="130" as="geometry" />
        </mxCell>
        <mxCell id="4ae6H3SjUM6ECucMdmOG-3" value="" style="editableCssRules=.*;html=1;shape=image;verticalLabelPosition=bottom;labelBackgroundColor=#ffffff;verticalAlign=top;aspect=fixed;imageAspect=0;image=data:image/svg+xml,PHN2ZyB4bWxucz0iaHR0cDovL3d3dy53My5vcmcvMjAwMC9zdmciIHhtbG5zOnY9Imh0dHBzOi8vdmVjdGEuaW8vbmFubyIgd2lkdGg9IjE0LjY1OTk5OTg0NzQxMjExIiBoZWlnaHQ9IjIwIiB2aWV3Qm94PSIwIDAgMTQuNjU5OTk5ODQ3NDEyMTEgMjAiPiYjeGE7CTxzdHlsZSB0eXBlPSJ0ZXh0L2NzcyI+JiN4YTsJLnN0MHtmaWxsOiM0Mjg1ZjQ7fSYjeGE7CS5zdDF7ZmlsbDojNjY5ZGY2O30mI3hhOwkuc3Qye2ZpbGw6I2FlY2JmYTt9JiN4YTsJPC9zdHlsZT4mI3hhOwk8c3R5bGU+JiN4YTsJCS5Ee2ZpbGwtcnVsZTpldmVub2RkfSYjeGE7CTwvc3R5bGU+JiN4YTsJPHBhdGggZD0iTTcuMzMgMTUuMzV2LTMuMDFMMCA4LjQ0djMuMDF6bTAgNC42NXYtMy4wMUwwIDEzLjA5djMuMDF6IiBjbGFzcz0ic3QyIEQiLz4mI3hhOwk8cGF0aCBkPSJNMTQuNjYgOC40NGwtNy4zMyAzLjl2My4wMWw3LjMzLTMuOXptMCA0LjY1bC03LjMzIDMuOVYyMGw3LjMzLTMuOXoiIGNsYXNzPSJzdDEgRCIvPiYjeGE7CTxwYXRoIGQ9Ik03LjMzIDB2My4wMWw3LjMzIDMuOVYzLjl6IiBjbGFzcz0ic3QwIEQiLz4mI3hhOwk8cGF0aCBkPSJNMCA2LjkxbDcuMzMtMy45VjBMMCAzLjl6IiBjbGFzcz0iRCBzdDEiLz4mI3hhOwk8cGF0aCBkPSJNNy4zMyAxMC43OVY3Ljc3TDAgMy44N3YzLjAyeiIgY2xhc3M9IkQgc3QyIi8+JiN4YTsJPHBhdGggZD0iTTE0LjY2IDMuODdsLTcuMzMgMy45djMuMDJsNy4zMy0zLjl6IiBjbGFzcz0iRCBzdDEiLz4mI3hhOzwvc3ZnPg==;" vertex="1" parent="1">
          <mxGeometry x="610" y="255" width="90" height="120" as="geometry" />
        </mxCell>
        <mxCell id="4ae6H3SjUM6ECucMdmOG-5" value="&lt;div&gt;&lt;br&gt;&lt;/div&gt;" style="editableCssRules=.*;html=1;shape=image;verticalLabelPosition=bottom;labelBackgroundColor=#ffffff;verticalAlign=top;aspect=fixed;imageAspect=0;image=data:image/svg+xml,PHN2ZyB4bWxucz0iaHR0cDovL3d3dy53My5vcmcvMjAwMC9zdmciIHhtbG5zOnY9Imh0dHBzOi8vdmVjdGEuaW8vbmFubyIgd2lkdGg9IjIwLjAwMTA0NTIyNzA1MDc4IiBoZWlnaHQ9IjIwLjAwMTA0NTIyNzA1MDc4IiBmaWxsLXJ1bGU9ImV2ZW5vZGQiIHZpZXdCb3g9IjAgMCAyMC4wMDEwNDUyMjcwNTA3OCAyMC4wMDEwNDUyMjcwNTA3OCI+JiN4YTsJPHN0eWxlIHR5cGU9InRleHQvY3NzIj4mI3hhOwkuc3Qwe2ZpbGw6I2FlY2JmYTt9JiN4YTsJLnN0MXtmaWxsOiM2NjlkZjY7fSYjeGE7CS5zdDJ7ZmlsbDojNDI4NWY0O30mI3hhOwk8L3N0eWxlPiYjeGE7CTxwYXRoIGNsYXNzPSJzdDAiIGQ9Ik00LjczIDguODN2Mi42M2E0LjkxIDQuOTEgMCAwIDAgMS43MSAxLjc0VjguODN6Ii8+JiN4YTsJPHBhdGggY2xhc3M9InN0MSIgZD0iTTcuODkgNi40MXY3LjUzQTcuNjIgNy42MiAwIDAgMCA5IDE0YTggOCAwIDAgMCAxIDBWNi40MXoiLz4mI3hhOwk8cGF0aCBjbGFzcz0ic3QwIiBkPSJNMTEuNjQgOS44NnYzLjI5YTUgNSAwIDAgMCAxLjctMS44MlY5Ljg2eiIvPiYjeGE7CTxwYXRoIGNsYXNzPSJzdDIiIGQ9Ik0xNS43NCAxNC4zMmwtMS40MiAxLjQyYS40Mi40MiAwIDAgMCAwIC42bDMuNTQgMy41NGEuNDIuNDIgMCAwIDAgLjU5IDBsMS40My0xLjQzYS40Mi40MiAwIDAgMCAwLS41OWwtMy41NC0zLjU0YS40Mi40MiAwIDAgMC0uNiAwIi8+JiN4YTsJPHBhdGggY2xhc3M9InN0MSIgZD0iTTkgMGE5IDkgMCAxIDAgMCAxOEE5IDkgMCAxIDAgOSAwbTAgMTUuNjlhNi42OCA2LjY4IDAgMCAxIC4wMDctMTMuMzYgNi42OCA2LjY4IDAgMCAxIDQuNzI3IDExLjQwM0E2LjY4IDYuNjggMCAwIDEgOSAxNS42OSIvPiYjeGE7PC9zdmc+;" vertex="1" parent="1">
          <mxGeometry x="240" y="30" width="100" height="100" as="geometry" />
        </mxCell>
        <mxCell id="4ae6H3SjUM6ECucMdmOG-6" value="&lt;font style=&quot;font-size: 20px;&quot;&gt;&lt;b&gt;Embedding&lt;/b&gt;&lt;/font&gt;&lt;div style=&quot;font-size: 20px;&quot;&gt;&lt;p style=&quot;margin: 0pt 0pt 0.0001pt; text-align: justify; font-family: Calibri; text-wrap: wrap;&quot; class=&quot;MsoNormal&quot;&gt;&lt;b style=&quot;&quot;&gt;&lt;font style=&quot;font-size: 20px;&quot;&gt;BAAI/bge-large-en-v1.5&lt;/font&gt;&lt;/b&gt;&lt;/p&gt;&lt;/div&gt;" style="text;html=1;align=center;verticalAlign=middle;resizable=0;points=[];autosize=1;strokeColor=none;fillColor=none;" vertex="1" parent="1">
          <mxGeometry x="165.25" y="400" width="260" height="60" as="geometry" />
        </mxCell>
        <mxCell id="4ae6H3SjUM6ECucMdmOG-7" value="" style="editableCssRules=.*;html=1;shape=image;verticalLabelPosition=bottom;labelBackgroundColor=#ffffff;verticalAlign=top;aspect=fixed;imageAspect=0;image=data:image/svg+xml,PHN2ZyB4bWxucz0iaHR0cDovL3d3dy53My5vcmcvMjAwMC9zdmciIHhtbG5zOnY9Imh0dHBzOi8vdmVjdGEuaW8vbmFubyIgd2lkdGg9IjIwIiBoZWlnaHQ9IjE3LjUiIGZpbGwtcnVsZT0iZXZlbm9kZCIgdmlld0JveD0iMCAwIDIwIDE3LjUiPiYjeGE7CTxzdHlsZSB0eXBlPSJ0ZXh0L2NzcyI+JiN4YTsJLnN0MHtmaWxsOiM0Mjg1ZjQ7fSYjeGE7CS5zdDF7ZmlsbDojNjY5ZGY2O30mI3hhOwk8L3N0eWxlPiYjeGE7CTxwYXRoIGNsYXNzPSJzdDAiIGQ9Ik0xOC45MSAxMC42M0wyMCA4Ljc1IDE3LjgyIDVoLTMuMDdsLTEuMDYtMS44NkgxMi41VjEuODhoMS45NGwxLjA2IDEuODdoMS41OUwxNC45IDBoLTQuMjd2NWgxLjczbC43MyAxLjI1aC0yLjQ2djIuNWgyLjI2bDEuMDUtMS44N2gyLjgxbC43MiAxLjI1aC0yLjhMMTMuNjIgMTBoLTIuOTl2NC4zOGgzLjRsLS43MiAxLjI1aC0yLjY4djEuODdoNC4yN2wzLjI4LTUuNjJoLTIuMDlsLS43MyAxLjI1SDEyLjV2LTEuMjVoMi4xNGwuNzQtMS4yNXoiLz4mI3hhOwk8cGF0aCBjbGFzcz0ic3QxIiBkPSJNMS4wOSAxMC42M0wwIDguNzUgMi4xOCA1aDMuMDdsMS4wNi0xLjg2SDcuNVYxLjg4SDUuNTZMNC41IDMuNzVIMi45MUw1LjEgMGg0LjI4djVINy42NGwtLjczIDEuMjVoMi40N3YyLjVINy4xMUw2LjA2IDYuODhIMy4yNWwtLjcyIDEuMjVoMi44TDYuMzggMTBoM3Y0LjM4SDUuOTdsLjcyIDEuMjVoMi42OXYxLjg3SDUuMWwtMy4yOC01LjYyaDIuMDlsLjczIDEuMjVINy41di0xLjI1SDUuMzZsLS43NC0xLjI1eiIvPiYjeGE7PC9zdmc+;" vertex="1" parent="1">
          <mxGeometry x="10" y="130" width="311.11" height="280" as="geometry" />
        </mxCell>
        <mxCell id="4ae6H3SjUM6ECucMdmOG-8" value="" style="editableCssRules=.*;html=1;shape=image;verticalLabelPosition=bottom;labelBackgroundColor=#ffffff;verticalAlign=top;aspect=fixed;imageAspect=0;image=data:image/svg+xml,PHN2ZyB4bWxucz0iaHR0cDovL3d3dy53My5vcmcvMjAwMC9zdmciIHhtbG5zOnY9Imh0dHBzOi8vdmVjdGEuaW8vbmFubyIgd2lkdGg9IjM4MC41MTE5Nzg1NDYzNTQ0NCIgaGVpZ2h0PSIyNzQuOTI5OTg3NzczNzYyNTUiIHZpZXdCb3g9IjAgMCAxMDAuNjc2OTk0MzIzNzMwNDcgNzIuNzQxOTk2NzY1MTM2NzIiPiYjeGE7PHN0eWxlIHR5cGU9InRleHQvY3NzIj4mI3hhOwkuc3Qwe2ZpbGw6IzQyODVmNDt9JiN4YTs8L3N0eWxlPiYjeGE7CTxwYXRoIGNsYXNzPSJzdDAiIGQ9Ik0zNy41NyA0NC43MjRoMjUuNDc3djUuNDY5SDM3LjU3em0wLTEwLjE0NmgyNS40Nzd2NS40NjlIMzcuNTd6bTAtMTAuMTQ2aDI1LjQ3N3Y1LjQ2OUgzNy41N3ptNTMuNTIgMi4yNzhsOS41ODcgMTMuMTQzLTIzLjc4MiAzMi44ODlIMjkuMDdsLTQuNzQxLTYuNTY4IDQuODExLTYuNTYxaDM4LjEwMXpNOS41ODcgNDYuMDMyTDAgMzIuODg5IDIzLjc4MiAwaDQ3LjgyNWw0Ljc0MSA2LjU2OC00LjgxMSA2LjU2MUgzMy40Mzd6Ii8+JiN4YTs8L3N2Zz4=;" vertex="1" parent="1">
          <mxGeometry x="240" y="368" width="365" height="292" as="geometry" />
        </mxCell>
        <mxCell id="4ae6H3SjUM6ECucMdmOG-9" value="" style="editableCssRules=.*;html=1;shape=image;verticalLabelPosition=bottom;labelBackgroundColor=#ffffff;verticalAlign=top;aspect=fixed;imageAspect=0;image=data:image/svg+xml,PHN2ZyB4bWxucz0iaHR0cDovL3d3dy53My5vcmcvMjAwMC9zdmciIHhtbG5zOnY9Imh0dHBzOi8vdmVjdGEuaW8vbmFubyIgd2lkdGg9IjE4IiBoZWlnaHQ9IjE4IiB2aWV3Qm94PSIwIDAgMTggMTgiPiYjeGE7CTxzdHlsZSB0eXBlPSJ0ZXh0L2NzcyI+JiN4YTsJLnN0MHtmaWxsOiM0Mjg1ZjQ7fSYjeGE7CS5zdDF7ZmlsbDojNjY5ZGY2O30mI3hhOwk8L3N0eWxlPiYjeGE7CTxnIGNsYXNzPSJzdDAiIGZpbGw9IiM0Mjg1ZjQiPiYjeGE7CQk8cGF0aCBkPSJNMy40OCA2LjYyYS4zNy4zNyAwIDAgMS0uMzU4LS41MzMuMzcuMzcgMCAwIDEgLjMwOC0uMjA3bDIuMy0uMzJhLjM3LjM3IDAgMCAxIC40Mi4zMi4zOC4zOCAwIDAgMS0uMzIuNDNsLTIuMy4zMXoiLz4mI3hhOwkJPHBhdGggZD0iTTYuMjk5IDYuMjkybC4yMzMtLjcxMyA0LjE0NSAxLjM1Mi0uMjMzLjcxM3oiLz4mI3hhOwkJPHBhdGggZD0iTTYuMTggNi4xNmgtLjExYS4zNy4zNyAwIDAgMS0uMjQtLjQ2bC44My0yLjg0YS4zNy4zNyAwIDAgMSAuNDYtLjI0LjM2LjM2IDAgMCAxIC4yNi40NWwtLjg0IDIuODFhLjM4LjM4IDAgMCAxLS4zNi4yOHptNS4xMyAxLjRBLjM2LjM2IDAgMCAxIDExIDdsMS42Ny00LjIzYS4zOC4zOCAwIDAgMSAuNDctLjE4LjM4LjM4IDAgMCAxIC4yMy40NWwtMS42OCA0LjI0YS4zOS4zOSAwIDAgMS0uMzguMjh6Ii8+JiN4YTsJCTxwYXRoIGQ9Ik0yLjY2OSAxMy42MDRMNi42IDEwLjQ2NWwuNDY4LjU4Ni0zLjkzMSAzLjEzOXpNMTUuMDUgOC42MWwtLjMuNjgtMy42My0xLjU4LjI5LS42OXptLS4zMSA1LjQ4bC0uNTIuNTQtMy4yMy0zLjA0LjUyLS41NXpNNS43ODggNi4xMTNsLjczNS0uMTQ5LjgwOCAzLjk3OS0uNzM1LjE0OXoiLz4mI3hhOwkJPHBhdGggZD0iTTExLjU2IDcuNTZsLTQuMSAzLjYtLjUtLjU2IDQuMS0zLjZ6Ii8+JiN4YTsJCTxwYXRoIGQ9Ik0xMS43NCA3LjNsLS4yNSAzLjk3LS43NC0uMDUuMjQtMy45N3oiLz4mI3hhOwkJPGNpcmNsZSBjeD0iNy4wMSIgY3k9IjEwLjgyIiByPSIxLjM2Ii8+JiN4YTsJCTxjaXJjbGUgY3g9IjExLjM3IiBjeT0iNy4zNiIgcj0iMS42MSIvPiYjeGE7CQk8Y2lyY2xlIGN4PSIxMS4zNiIgY3k9IjExLjU0IiByPSIuODQiLz4mI3hhOwkJPGNpcmNsZSBjeD0iNi4wNCIgY3k9IjUuNjciIHI9Ii45OSIvPiYjeGE7CTwvZz4mI3hhOwk8ZyBjbGFzcz0ic3QxIiBmaWxsPSIjNjY5ZGY2Ij4mI3hhOwkJPHBhdGggZD0iTTggNGgyVjBIOHptNCAwaDJWMGgtMnpNNCA0aDJWMEg0em00IDE0aDJ2LTRIOHoiLz4mI3hhOwkJPHBhdGggZD0iTTEyIDE4aDJ2LTRoLTJ6bS04IDBoMnYtNEg0em0tNC04aDRWOEgwem0wLTRoNFY0SDB6Ii8+JiN4YTsJCTxwYXRoIGQ9Ik0wIDE0aDR2LTJIMHptMTQtNGg0VjhoLTR6bTAtNGg0VjRoLTR6bTAgOGg0di0yaC00eiIvPiYjeGE7CQk8cGF0aCBkPSJNMTUgMkgzYTEgMSAwIDAgMC0xIDF2MTJhMSAxIDAgMCAwIDEgMWgxMmExIDEgMCAwIDAgMS0xVjNhMSAxIDAgMCAwLTEtMXptLTEgMTEuNDdhLjUzLjUzIDAgMCAxLS41My41M0g0LjUzYS41My41MyAwIDAgMS0uNTMtLjUzVjQuNTNBLjUzLjUzIDAgMCAxIDQuNTMgNGg4Ljk0YS41My41MyAwIDAgMSAuNTMuNTN6Ii8+JiN4YTsJPC9nPiYjeGE7PC9zdmc+;" vertex="1" parent="1">
          <mxGeometry x="190" y="580" width="250" height="250" as="geometry" />
        </mxCell>
        <mxCell id="4ae6H3SjUM6ECucMdmOG-10" value="" style="editableCssRules=.*;html=1;shape=image;verticalLabelPosition=bottom;labelBackgroundColor=#ffffff;verticalAlign=top;aspect=fixed;imageAspect=0;image=data:image/svg+xml,PHN2ZyB4bWxucz0iaHR0cDovL3d3dy53My5vcmcvMjAwMC9zdmciIHhtbG5zOnY9Imh0dHBzOi8vdmVjdGEuaW8vbmFubyIgd2lkdGg9IjIwIiBoZWlnaHQ9IjE4IiB2aWV3Qm94PSIwIDAgMjAgMTgiPiYjeGE7CTxzdHlsZSB0eXBlPSJ0ZXh0L2NzcyI+JiN4YTsJLnN0MHtmaWxsOiM0Mjg1ZjQ7fSYjeGE7CS5zdDF7ZmlsbDojNjY5ZGY2O2ZpbGwtcnVsZTpldmVub2RkfSYjeGE7CTwvc3R5bGU+JiN4YTsJPHBhdGggY2xhc3M9InN0MCIgZD0iTTE1LjkxIDcuMmgtMS44MkwxMCAxOGgxLjgybDEtMi43aDQuMzJsMSAyLjdIMjB6bS0yLjM5IDYuM0wxNSA5LjZsMS40OCAzLjl6Ii8+JiN4YTsJPHBhdGggY2xhc3M9InN0MSIgZD0iTTEwLjc5IDExLjc3TDguNDggOS41MWgwYTE1LjYyIDE1LjYyIDAgMCAwIDMuNC01LjkxaDIuNjdWMS44SDguMThWMEg2LjM2djEuOEgwdjEuNzloMTAuMTVhMTQuMDYgMTQuMDYgMCAwIDEtMi44OCA0LjgyIDE0LjU1IDE0LjU1IDAgMCAxLTIuMS0zSDMuMzVhMTYgMTYgMCAwIDAgMi43MSA0LjFMMS40NCAxNGwxLjI5IDEuMyA0LjU0LTQuNSAyLjgzIDIuOHoiLz4mI3hhOzwvc3ZnPg==;" vertex="1" parent="1">
          <mxGeometry x="630" y="624" width="151.11" height="136" as="geometry" />
        </mxCell>
        <mxCell id="4ae6H3SjUM6ECucMdmOG-11" value="" style="editableCssRules=.*;html=1;shape=image;verticalLabelPosition=bottom;labelBackgroundColor=#ffffff;verticalAlign=top;aspect=fixed;imageAspect=0;image=data:image/svg+xml,PHN2ZyB4bWxucz0iaHR0cDovL3d3dy53My5vcmcvMjAwMC9zdmciIHhtbG5zOnY9Imh0dHBzOi8vdmVjdGEuaW8vbmFubyIgd2lkdGg9IjM2Mi4yMjI0NzgzNzUzNTMxNSIgaGVpZ2h0PSIzNzcuMzU5NDg0NzI1NTkyNSIgdmlld0JveD0iNjcuMzQ3OTk5NTcyNzUzOSAxMDguNjg4MDAzNTQwMDM5MDYgOTUuODM4MDA1MDY1OTE3OTcgOTkuODQzMDAyMzE5MzM1OTQiPiYjeGE7PHN0eWxlIHR5cGU9InRleHQvY3NzIj4mI3hhOwkuc3Qwe2ZpbGw6IzY2OWRmNjt9JiN4YTsJLnN0MXtmaWxsOiNhZWNiZmE7fSYjeGE7CS5zdDJ7ZmlsbDojNDI4NWY0O30mI3hhOzwvc3R5bGU+JiN4YTsJPHBhdGggY2xhc3M9InN0MCIgZD0iTTk2LjE5OSAxNzMuODAxdjI1Ljk5bDE5LjE4MSA4Ljc0di0yNS45MjZ6bTQuNzcxIDguNjYybDkuNjczIDQuNDA4djEyLjk4NWwtOS42NzMtNC4zNzV6bS00Ljc3MS0zOC45Njl2MjEuNjg2bDE5LjE4MSA4LjczMnYtMjEuNjg0bC00LjczNy0yLjA5NXYxNS4wNmwtOS42NzMtNC4zOTV2LTE1LjE3ek02Ny4zNDggMTMwLjMydjU2LjU1bDE5LjExNCA4Ljc4M3YtNTYuNjU4bC00LjczNC0yLjEyN3Y0OS45MDhsLTkuNTUzLTQuMzgxVjEzMi40OXoiLz4mI3hhOwk8cGF0aCBjbGFzcz0ic3QxIiBkPSJNOTYuMTE2IDExNy4zMTZsMTkuMjY0LTguNjI4IDQ3LjgwNiAyMS43NjMtMTguNzkgOC42MzJ6bTE5LjI2NCAzNC45MTJsLTE5LjE4MS04Ljc0NiAxOS4xODEtOC43MzkgMTkuMjE1IDguNzU5ek04Ni40NjIgMTM5LjA2bC0xOS4xMTQtOC43NDYgMTkuMTE0LTguNzM5IDE5LjM2MiA4Ljc1OXoiLz4mI3hhOwk8cGF0aCBjbGFzcz0ic3QyIiBkPSJNMTQ0LjM5NiAxNjAuNjEzdi0yMS41M2wxOC43OS04LjYzMnYyMS42NTd6TTExNS4zOCAxODIuNTNsNDcuODA2LTIxLjcxMnYyNS45MDRsLTQ3LjgwNiAyMS42MjZ6bTAtOC42MTh2LTIxLjY4NGwxOS4yMTUtOC43MzJ2MjEuNTQ1eiIvPiYjeGE7PC9zdmc+;" vertex="1" parent="1">
          <mxGeometry x="100" y="780" width="166.25" height="175" as="geometry" />
        </mxCell>
      </root>
    </mxGraphModel>
  </diagram>
</mxfile>
